<?xml version="1.0" encoding="iso-8859-1"?>
<!-- Uploaded to: SVG Repo, www.svgrepo.com, Generator: SVG Repo Mixer Tools -->
<svg version="1.1" id="Layer_1" xmlns="http://www.w3.org/2000/svg"
    xmlns:xlink="http://www.w3.org/1999/xlink"
    viewBox="0 0 390.271 390.271" xml:space="preserve">
<path style="fill:#FFFFFF;" d="M241.713,368.582h94.319c5.947,0,10.861-4.848,10.861-10.861V188.089h-105.18V368.582z"/>
<rect id="SVGCleanerId_0" x="170.149" y="188.089" style="fill:#FFFFFF;" width="49.325" height="180.493"/>
<path style="fill:#FFFFFF;" d="M148.493,188.089H43.895v169.632c0,5.947,4.848,10.861,10.861,10.861h94.319V188.089H148.493z"/>
<g>
	<path style="fill:#FFC10D;" d="M357.689,107.345H241.713v59.087h115.976c5.948,0,10.861-4.848,10.861-10.861v-37.366
		C368.549,112.194,363.636,107.345,357.689,107.345z"/>
	<rect x="170.149" y="107.345" style="fill:#FFC10D;" width="49.325" height="59.087"/>
</g>
<path style="fill:#194F82;" d="M357.689,85.689h-77.511c6.529-8.663,10.279-19.523,10.279-31.418v-1.099
	c0-29.285-23.855-53.139-53.139-53.139c-17.325,0-32.517,8.145-42.279,21.139C185.277,8.178,170.085,0.032,152.76,0.032
	c-29.285,0-53.139,23.855-53.139,53.139v1.099c0,11.895,3.814,22.756,10.279,31.418H32.517C14.61,85.689,0,100.299,0,118.206v37.366
	c0,14.093,9.244,26.57,22.238,30.901v171.249c0,17.907,14.61,32.517,32.517,32.517h280.76c17.907,0,32.517-14.61,32.517-32.517
	V186.473c12.994-4.331,22.238-16.291,22.238-30.901v-37.366C390.206,100.299,375.596,85.689,357.689,85.689z M368.549,155.572
	c0,5.947-4.849,10.861-10.861,10.861H241.713v-59.087h115.976c5.948,0,10.861,4.848,10.861,10.861V155.572z M346.311,357.721
	c0,5.947-4.848,10.861-10.861,10.861h-93.737V188.089h105.115v169.632H346.311z M43.895,357.721V188.089H149.01v180.493H54.756
	C48.743,368.582,43.895,363.669,43.895,357.721z M170.149,368.582V188.089h49.325v180.493L170.149,368.582L170.149,368.582z
	 M21.657,155.572v-37.366c0-5.947,4.848-10.861,10.861-10.861h115.976v59.087H32.517C26.57,166.432,21.657,161.519,21.657,155.572z
	 M220.057,107.345v59.087h-49.325v-59.087H220.057z M205.964,53.172c0-17.325,14.093-31.418,31.418-31.418
	c17.325,0,31.418,14.093,31.418,31.418v1.099c0,17.325-14.093,31.418-31.418,31.418h-31.418V53.172z M121.406,53.172
	c0-17.325,14.093-31.418,31.418-31.418s31.418,14.093,31.418,31.418v32.517h-31.418c-17.325,0-31.418-14.093-31.418-31.418V53.172
	L121.406,53.172z"/>
<path style="fill:#FFC10D;" d="M148.493,107.345H32.517c-5.947,0-10.861,4.848-10.861,10.861v37.366
	c0,5.947,4.848,10.861,10.861,10.861h115.976V107.345z"/>
<g>
	<path style="fill:#56ACE0;" d="M65.034,209.745v33.616h39.046c5.947,0,10.861,4.848,10.861,10.861
		c0,5.947-4.848,10.861-10.861,10.861H65.034v21.657H82.36c5.947,0,10.861,4.848,10.861,10.861c0,5.947-4.848,10.861-10.861,10.861
		H65.034v38.465h83.459v-137.18H65.034z"/>
	<rect x="241.713" y="209.745" style="fill:#56ACE0;" width="83.459" height="137.115"/>
</g>
<g>
	<rect id="SVGCleanerId_0_1_" x="170.149" y="188.089" style="fill:#FFFFFF;" width="49.325" height="180.493"/>
</g>
<rect x="170.149" y="107.345" style="fill:#FFFFFF;" width="49.325" height="59.087"/>
</svg>