<svg xmlns="http://www.w3.org/2000/svg" width="48" height="48" viewBox="0 0 48 48">
    <title>energy-supplement</title>
    <g>
        <rect x="7" y="1" width="34" height="7" rx="1" ry="1" fill="#b3b3b3"></rect>
        <path
            d="M37,12V8H11v4a7.008,7.008,0,0,0-7,7V39a7,7,0,0,0,7,7H37a7,7,0,0,0,7-7V19A7.008,7.008,0,0,0,37,12Z"
            fill="#444"></path>
        <path d="M24,7a1,1,0,0,1-1-1V3a1,1,0,0,1,2,0V6A1,1,0,0,1,24,7Z" fill="#999"></path>
        <path d="M18,7a1,1,0,0,1-1-1V3a1,1,0,0,1,2,0V6A1,1,0,0,1,18,7Z" fill="#999"></path>
        <path d="M30,7a1,1,0,0,1-1-1V3a1,1,0,0,1,2,0V6A1,1,0,0,1,30,7Z" fill="#999"></path>
        <path d="M36,7a1,1,0,0,1-1-1V3a1,1,0,0,1,2,0V6A1,1,0,0,1,36,7Z" fill="#999"></path>
        <path d="M12,7a1,1,0,0,1-1-1V3a1,1,0,0,1,2,0V6A1,1,0,0,1,12,7Z" fill="#999"></path>
        <rect x="4" y="23" width="40" height="12" fill="#c94f49"></rect>
        <circle cx="24" cy="29" r="12" fill="#c94f49"></circle>
        <path
            d="M22,37a1,1,0,0,1-.949-1.315L22.613,31H18a1,1,0,0,1-.707-1.707l8-8a1,1,0,0,1,1.655,1.023L25.388,27H30a1,1,0,0,1,.707,1.707l-8,8A1,1,0,0,1,22,37Z"
            fill="#efd358"></path>
    </g>
</svg>