

    <svg
    xmlns="http://www.w3.org/2000/svg"
    viewBox="0 0 48 48"
    aria-labelledby="iconName"
    role="presentation"
  >
  <g
    ><path
      d="M13.822,24.105a20.029,20.029,0,0,0,3.1,4.068A19.906,19.906,0,0,0,24,21a19.912,19.912,0,0,1-2.679-9.717h0A20.1,20.1,0,0,1,24,1a19.91,19.91,0,0,0-9.89,2.621A20,20,0,0,0,13.822,24.105Z"
      fill="#458bc4"
    ></path>
    <path
      d="M26.4,10.633a20.058,20.058,0,0,0-5.079.65A19.912,19.912,0,0,0,24,21a19.909,19.909,0,0,1,9.754,2.538v0a20.1,20.1,0,0,1,7.567,7.456A19.889,19.889,0,0,0,44,21.121,20,20,0,0,0,26.4,10.633Z"
      fill="#e6e6e6"
    ></path>
    <path
      d="M13.822,24.105a20,20,0,0,1,.284-20.484A19.992,19.992,0,0,0,6.684,31a20.09,20.09,0,0,0,10.235-2.83A20.029,20.029,0,0,1,13.822,24.105Z"
      fill="#e6e6e6"
    ></path>
    <path
      d="M21.321,11.283A20.035,20.035,0,0,1,44,21.121c0-.041,0-.081,0-.121A20,20,0,0,0,24,1h0A20.092,20.092,0,0,0,21.321,11.283Z"
      fill="#efd358"
    ></path>
    <path
      d="M33.754,23.538A20.031,20.031,0,0,1,13.9,38.257a19.992,19.992,0,0,0,27.426-7.263A20.1,20.1,0,0,0,33.754,23.538Z"
      fill="#458bc4"
    ></path>
    <path
      d="M31.778,28.262a20,20,0,0,0,1.976-4.724A19.909,19.909,0,0,0,24,21a19.906,19.906,0,0,1-7.081,7.173l.007.007-.007-.007A20.09,20.09,0,0,1,6.684,31,20.082,20.082,0,0,0,13.9,38.257,19.992,19.992,0,0,0,31.778,28.262Z"
      fill="#efd358"
    ></path>
    <path
      d="M46,47H2a1,1,0,0,1-1-1V36a1,1,0,0,1,1-1,8.65,8.65,0,0,0,6.728-3.11,1.032,1.032,0,0,1,1.544,0A8.65,8.65,0,0,0,17,35a8.768,8.768,0,0,0,6.282-2.611,1.029,1.029,0,0,1,1.436,0A8.768,8.768,0,0,0,31,35a8.65,8.65,0,0,0,6.728-3.11,1.032,1.032,0,0,1,1.544,0A8.65,8.65,0,0,0,46,35a1,1,0,0,1,1,1V46A1,1,0,0,1,46,47Z"
      fill="#82adb2"
    ></path>
    <path
      d="M46,47H2a1,1,0,0,1-1-1V42a1,1,0,0,1,1-1,8.648,8.648,0,0,0,6.728-3.111,1.033,1.033,0,0,1,1.544,0A8.648,8.648,0,0,0,17,41a8.765,8.765,0,0,0,6.282-2.612,1.031,1.031,0,0,1,1.436,0A8.765,8.765,0,0,0,31,41a8.648,8.648,0,0,0,6.728-3.111,1.033,1.033,0,0,1,1.544,0A8.648,8.648,0,0,0,46,41a1,1,0,0,1,1,1v4A1,1,0,0,1,46,47Z"
      fill="#a4dae0"
    ></path
  ></g>
  </svg>
