

    <svg
    xmlns="http://www.w3.org/2000/svg"
    viewBox="0 0 48 48"
    aria-labelledby="iconName"
    role="presentation"
  >
 <g
    ><path
      d="M12.447,38H28.2l5.982-4.387a2,2,0,0,0,.505-2.687L23.446,13.189,27.537,8.28a2,2,0,0,0-3.074-2.56l-5,6a2,2,0,0,0-.178,2.309l3.923,6.538L9.817,30.387a2,2,0,0,0-.505,2.687Z"
      fill="#5a7a84"
    ></path>
    <circle cx="36" cy="20" r="5" fill="#5a7a84"></circle>
    <path
      d="M46,42H2a1,1,0,0,1-1-1V34H2a9.006,9.006,0,0,0,6.749-3.061.994.994,0,0,1,1.5,0,8.971,8.971,0,0,0,13.5,0,.994.994,0,0,1,1.5,0,8.978,8.978,0,0,0,13.048.484,1,1,0,0,1,1.4,0A8.953,8.953,0,0,0,46,34h1v7A1,1,0,0,1,46,42Z"
      fill="#9bced3"
    ></path
  ></g>
  </svg>
