

    <svg
    xmlns="http://www.w3.org/2000/svg"
    viewBox="0 0 48 48"
    aria-labelledby="iconName"
    role="presentation"
  >
  <g
    ><circle cx="27" cy="7" r="5" fill="#5a7a84"></circle>
    <path d="M40.5,21A4.5,4.5,0,1,1,45,16.5,4.505,4.505,0,0,1,40.5,21Z" fill="#ea9860"></path>
    <path
      d="M26.984,34.224a2.5,2.5,0,0,0-1-1.735l-6.084-4.5L17.86,30.261,20.3,34.092a4.751,4.751,0,0,1,.348.671l1.486,1.1.88,7.915A2.5,2.5,0,0,0,25.5,46a2.385,2.385,0,0,0,.279-.016,2.5,2.5,0,0,0,2.208-2.76Z"
      fill="#335262"
    ></path>
    <path
      d="M37.169,22.377l-12.683-9.24a4.5,4.5,0,0,0-6.331.352l-9,10A4.491,4.491,0,0,0,8.776,29L13.4,36.273l-4.8,5.6a2.5,2.5,0,1,0,3.8,3.254l6-7a2.5,2.5,0,0,0,.217-2.96l-3.258-5.114L25.478,18.807l9.353,6.816a2,2,0,1,0,2.338-3.246Z"
      fill="#5a7a84"
    ></path
  ></g>
  </svg>
