

    <svg
    xmlns="http://www.w3.org/2000/svg"
    viewBox="0 0 48 48"
    aria-labelledby="iconName"
    role="presentation"
  >
  <g
    ><circle fill="#E6E6E6" cx="24" cy="24" r="20"></circle>
    <path
      fill="#E86C60"
      d="M24,46C11.86914,46,2,36.13086,2,24S11.86914,2,24,2s22,9.86914,22,22S36.13086,46,24,46z M24,6 C14.07471,6,6,14.0752,6,24s8.07471,18,18,18s18-8.0752,18-18S33.92529,6,24,6z"
    ></path>
    <circle fill="#E6E6E6" cx="24" cy="24" r="11"></circle>
    <path
      fill="#E86C60"
      d="M24,37c-7.16846,0-13-5.83203-13-13s5.83154-13,13-13s13,5.83203,13,13S31.16846,37,24,37z M24,15 c-4.9624,0-9,4.03711-9,9s4.0376,9,9,9s9-4.03711,9-9S28.9624,15,24,15z"
    ></path>
    <circle fill="#E86C60" cx="24" cy="24" r="4"></circle
  ></g>
  </svg>
