

    <svg
    xmlns="http://www.w3.org/2000/svg"
    viewBox="0 0 48 48"
    aria-labelledby="iconName"
    role="presentation"
  >
  <g
    ><path d="M24,47A23,23,0,1,1,47,24,23.026,23.026,0,0,1,24,47Z" fill="#444"></path>
    <path
      d="M24,42A23.032,23.032,0,0,1,1.138,21.5,23,23,0,1,0,47,24a23.2,23.2,0,0,0-.138-2.5A23.032,23.032,0,0,1,24,42Z"
      fill="#2b2b2b"
    ></path>
    <path d="M24,9A13,13,0,1,0,37,22,13.015,13.015,0,0,0,24,9Z" fill="#fff"></path>
    <path
      d="M24,30c-2.945,0-5.167-1.7-5.167-3.967,0-1.9,1.183-3.19,3.18-4.415-2.312-1.631-2.6-3.192-2.6-3.86C19.417,15.37,21.088,14,24,14s4.583,1.37,4.583,3.758c0,.668-.284,2.229-2.6,3.86,2,1.225,3.18,2.512,3.18,4.415C29.167,28.3,26.945,30,24,30Zm0-7.218c-2.623,1.427-3.167,2.312-3.167,3.251C20.833,27.118,22.254,28,24,28s3.167-.882,3.167-1.967C27.167,25.094,26.622,24.209,24,22.782ZM24,16c-2.583,0-2.583,1.188-2.583,1.758,0,.493.558,1.6,2.583,2.754,2.025-1.159,2.583-2.261,2.583-2.754C26.583,17.188,26.583,16,24,16Z"
      fill="#444"
    ></path
  ></g>
  </svg>
