

    <svg
    xmlns="http://www.w3.org/2000/svg"
    viewBox="0 0 48 48"
    aria-labelledby="iconName"
    role="presentation"
  >
  <g
    ><path
      d="M30.871,7.071l-12.5-5A1,1,0,0,0,18,2.008V14a.991.991,0,0,0,.371-.071l12.5-5a1,1,0,0,0,0-1.858Z"
      fill="#ed7064"
    ></path>
    <path
      d="M24,26c1.425,0,2.854.055,4.251.166A2.973,2.973,0,0,1,30.9,28.345a3.15,3.15,0,0,1-.875,3.046l-.831.83a1,1,0,0,0,.881,1.693l12.178-2.148a3.921,3.921,0,0,1,4.288,2.174A4.948,4.948,0,0,1,47,36c0,5.607-10.1,10-23,10C11.347,46,1,41.767,1,36S11.347,26,24,26"
      fill="#4da34d"
      fill-rule="evenodd"
    ></path>
    <path d="M18,37a1,1,0,0,1-1-1V3a1,1,0,0,1,2,0V36A1,1,0,0,1,18,37Z" fill="#b3b3b3"></path
  ></g>
  </svg>
