

    <svg
    xmlns="http://www.w3.org/2000/svg"
    viewBox="0 0 48 48"
    aria-labelledby="iconName"
    role="presentation"
  >
  <g>
    <circle cx="30" cy="7" r="5" fill="#5a7a84"></circle>
    <circle cx="39.5" cy="32.5" r="4.5" fill="#ea9860"></circle>
    <path
      d="M37,21H32.167l-3.729-6.67a4.473,4.473,0,0,0-1.925-1.855A4.124,4.124,0,0,0,24.66,12H16a2,2,0,0,0-1.664.891l-4,6a2,2,0,1,0,3.328,2.218L17.07,16h2.648l-4.243,8.487a4.5,4.5,0,0,0,1.269,5.568C17.206,30.424,24,34,24,34v7.5a2.5,2.5,0,0,0,5,0v-9a2.5,2.5,0,0,0-1.322-2.2L23.7,28.169l3.721-7.441,1.841,3.256A2,2,0,0,0,31,25h6a2,2,0,0,0,0-4Z"
      fill="#5a7a84"
    ></path>
    <path
      d="M13.994,29.937,7.3,42.311a2.5,2.5,0,1,0,4.4,2.378l6.408-11.845a6.558,6.558,0,0,1-1.512-.529A6.458,6.458,0,0,1,13.994,29.937Z"
      fill="#335262"
    ></path>
  </g>
  </svg>
