

    <svg
    xmlns="http://www.w3.org/2000/svg"
    viewBox="0 0 48 48"
    aria-labelledby="iconName"
    role="presentation"
  >
 <g
    ><path d="M39,35H12V46a1,1,0,0,0,1,1H38a1,1,0,0,0,1-1Z" fill="#444"></path>
    <path
      d="M34,1H16a9.01,9.01,0,0,0-9,9,8.892,8.892,0,0,0,.539,3.023c.219.581.574,1.381.873,2.036A4.984,4.984,0,0,0,4,20v9a8,8,0,0,0,8,8H35a8,8,0,0,0,8-8V10A9.01,9.01,0,0,0,34,1Z"
      fill="#ed7064"
    ></path>
    <path
      d="M15.5,28H14a1,1,0,0,1,0-2h1.5a5.5,5.5,0,0,0,0-11H9a1,1,0,0,1,0-2h6.5a7.5,7.5,0,0,1,0,15Z"
      fill="#c94f49"
    ></path>
    <path
      d="M35,21H22a1,1,0,0,1,0-2H35a6.006,6.006,0,0,0,6-6,1,1,0,0,1,2,0A8.009,8.009,0,0,1,35,21Z"
      fill="#c94f49"
    ></path
  ></g>
  </svg>
