

    <svg
    xmlns="http://www.w3.org/2000/svg"
    viewBox="0 0 48 48"
    aria-labelledby="iconName"
    role="presentation"
  >
 <g
    ><circle cx="37" cy="16" r="5" fill="#5a7a84"></circle> <circle cx="30.5" cy="5.5" r="4.5" fill="#ea9860"></circle>
    <path
      d="M45.414,33.586,24,12.172V6a2,2,0,0,0-4,0v7a2,2,0,0,0,.586,1.414l4.732,4.732L2.732,41.732a2.5,2.5,0,0,0,3.536,3.536L17.5,34.035,20.465,37l-4.733,4.732a2.5,2.5,0,0,0,3.536,3.536l6-6a2.494,2.494,0,0,0,.24-3.241l8.346-8.345,8.732,8.732a2,2,0,0,0,2.828-2.828Z"
      fill="#5a7a84"
    ></path
  ></g>
  </svg>
