

    <svg
    xmlns="http://www.w3.org/2000/svg"
    viewBox="0 0 48 48"
    aria-labelledby="iconName"
    role="presentation"
  >
 <g
    ><path
      d="M41.353,46a1,1,0,0,0,.857-.478A26,26,0,0,0,20,6l-1.1.038A5,5,0,0,0,14,2V8.669L3.853,22.2A4.062,4.062,0,0,0,3.266,26.1a4.332,4.332,0,0,0,6.592,2.085l4.472-3.194A10.016,10.016,0,0,0,23,19.357V25c0,4.07-2.473,6.049-5.606,8.555-3.183,2.545-6.79,5.43-8.359,11.182A1,1,0,0,0,10,46H41"
      fill="#a67c52"
    ></path>
    <path d="M14,16.5A1.5,1.5,0,1,1,15.5,15,1.5,1.5,0,0,1,14,16.5Z" fill="#444"></path>
    <circle cx="14" cy="15" r="1.5" fill="#444"></circle>
    <path d="M20,10A21.989,21.989,0,0,1,36.958,46h2.517A23.98,23.98,0,0,0,20,8a1,1,0,0,0,0,2Z" fill="#87613e"></path
  ></g>
  </svg>
