

    <svg
    xmlns="http://www.w3.org/2000/svg"
    viewBox="0 0 48 48"
    aria-labelledby="iconName"
    role="presentation"
  >
  <g
    ><path
      d="M38.443,45.745a1.028,1.028,0,0,1-.262-.019l-23.5-4.9a1,1,0,0,1-.775-1.186l6.2-29.352a1.006,1.006,0,0,1,1.182-.773L44.708,14.4a1,1,0,0,1,.776,1.183l-6.12,29.37a1,1,0,0,1-.921.795Z"
      fill="#c64692"
    ></path>
    <path d="M27,34H3a1,1,0,0,1-1-1V3A1,1,0,0,1,3,2H27a1,1,0,0,1,1,1V33A1,1,0,0,1,27,34Z" fill="#ef8ec3"></path
  ></g>
  </svg>
