

    <svg
    xmlns="http://www.w3.org/2000/svg"
    viewBox="0 0 48 48"
    aria-labelledby="iconName"
    role="presentation"
  >
  <g
    ><path d="M46,10H2A1,1,0,0,1,2,8H46a1,1,0,0,1,0,2Z" fill="#b3b3b3"></path>
    <g>
      <circle cx="24" cy="17.5" r="4.5" fill="#5a7a84"></circle>
      <path
        d="M38.6,15.2a2,2,0,1,0-3.2-2.4L27,24H21L12.6,12.8a2,2,0,1,0-3.2,2.4L18,26.666v6.042l-4.015.846A2.5,2.5,0,0,0,12,36v8.5a2.5,2.5,0,0,0,5,0V38.028l7-1.473,7,1.473V44.5a2.5,2.5,0,0,0,5,0V36a2.5,2.5,0,0,0-1.985-2.446L30,32.708V26.666Z"
        fill="#5a7a84"
      ></path>
    </g>
    <rect x="3" y="1" width="3" height="16" rx="1.5" ry="1.5" fill="#444"></rect>
    <rect x="42" y="1" width="3" height="16" rx="1.5" ry="1.5" fill="#444"></rect
  ></g>
  </svg>
