

    <svg
    xmlns="http://www.w3.org/2000/svg"
    viewBox="0 0 48 48"
    aria-labelledby="iconName"
    role="presentation"
  >
  <g
    ><rect x="6" y="20" fill="#B3B3B3" width="6" height="26"></rect>
    <rect x="16" y="20" fill="#B3B3B3" width="6" height="26"></rect>
    <rect x="26" y="20" fill="#B3B3B3" width="6" height="26"></rect>
    <rect x="36" y="20" fill="#B3B3B3" width="6" height="26"></rect>
    <path
      fill="#E6E6E6"
      d="M46.479,15.12207l-22-12c-0.29883-0.16211-0.65918-0.16211-0.95801,0l-22,12 C1.19971,15.29688,1,15.63379,1,16v6c0,0.55273,0.44775,1,1,1h44c0.55225,0,1-0.44727,1-1v-6 C47,15.63379,46.80029,15.29688,46.479,15.12207z"
    ></path>
    <path
      fill="#E6E6E6"
      d="M46,43H2c-0.55225,0-1,0.44727-1,1v2c0,0.55273,0.44775,1,1,1h44c0.55225,0,1-0.44727,1-1v-2 C47,43.44727,46.55225,43,46,43z"
    ></path>
    <circle fill="#B3B3B3" cx="24" cy="14" r="4"></circle>
    <rect
      x="7.5"
      y="21.5"
      transform="matrix(6.730267e-11 -1 1 6.730267e-11 -15.5 33.5)"
      fill="#939393"
      width="3"
      height="6"
    ></rect>
    <rect
      x="17.5"
      y="21.5"
      transform="matrix(6.730267e-11 -1 1 6.730267e-11 -5.5 43.5)"
      fill="#939393"
      width="3"
      height="6"
    ></rect>
    <rect
      x="27.5"
      y="21.5"
      transform="matrix(6.730267e-11 -1 1 6.730267e-11 4.5 53.5)"
      fill="#939393"
      width="3"
      height="6"
    ></rect>
    <rect
      x="37.5"
      y="21.5"
      transform="matrix(6.730267e-11 -1 1 6.730267e-11 14.5 63.5)"
      fill="#939393"
      width="3"
      height="6"
    ></rect
  ></g>
  </svg>
