<svg xmlns="http://www.w3.org/2000/svg" xmlns:xlink="http://www.w3.org/1999/xlink" viewBox="0 0 48 48" version="1.1">
   <g id="surface1">
       <path style=" stroke:none;fill-rule:nonzero;fill:rgb(100%,27.45098%,33.333333%);fill-opacity:1;" d="M 4.125 6.042969 C 4.371094 5.882812 4.527344 6.207031 4.660156 6.378906 C 13.160156 18.09375 21.671875 29.796875 30.171875 41.511719 C 30.34375 41.679688 30.210938 42.035156 29.976562 41.996094 C 25.90625 42.003906 21.835938 42 17.765625 42 C 17.441406 42.003906 17.128906 41.824219 16.929688 41.542969 C 12.707031 35.734375 8.484375 29.917969 4.261719 24.105469 C 4.082031 23.871094 3.988281 23.566406 4 23.261719 C 4 17.648438 4.003906 12.03125 4 6.417969 C 4.003906 6.285156 3.996094 6.113281 4.125 6.042969 Z M 4.125 6.042969 "/>
       <path style=" stroke:none;fill-rule:nonzero;fill:rgb(100%,27.45098%,33.333333%);fill-opacity:1;" d="M 43.652344 6.015625 C 43.828125 5.945312 44.019531 6.121094 43.996094 6.316406 C 44 11.867188 43.996094 17.414062 44 22.960938 C 44.011719 23.277344 43.945312 23.601562 43.757812 23.847656 C 42.46875 25.59375 41.175781 27.339844 39.886719 29.085938 C 39.671875 29.390625 39.320312 29.554688 38.96875 29.535156 C 34.90625 29.53125 30.84375 29.539062 26.78125 29.535156 C 26.539062 29.574219 26.402344 29.222656 26.582031 29.054688 C 32.214844 21.421875 37.855469 13.796875 43.492188 6.167969 C 43.535156 6.101562 43.589844 6.050781 43.652344 6.015625 Z M 43.652344 6.015625 "/>
   </g>
</svg>