

    <svg
    xmlns="http://www.w3.org/2000/svg"
    viewBox="0 0 48 48"
    aria-labelledby="iconName"
    role="presentation"
  >
  <g
    ><circle cx="40" cy="7" r="5" fill="#5a7a84"></circle>
    <path d="M39,48a1,1,0,0,1-.446-.1l-36-18a1,1,0,0,1,.894-1.79l36,18A1,1,0,0,1,39,48Z" fill="#ed7064"></path>
    <path
      d="M18.728,16.982a4.484,4.484,0,0,0-1.086,5.833,8.172,8.172,0,0,0,.826,1.014l5.2,4.985L18.06,33.176l4.957,2.478,6.018-4.68a2.5,2.5,0,0,0,.183-3.79l-3.9-3.727L32,19.448V24a2,2,0,0,0,1.1,1.789l6,3a2,2,0,0,0,1.79-3.578L36,22.764s-.014-8.443-.027-8.529a4.443,4.443,0,0,0-.615-2.05,4.5,4.5,0,0,0-6.173-1.543L20.7,15.732Z"
      fill="#5a7a84"
    ></path>
    <path d="M32,21.382,7.447,9.105a1,1,0,1,0-.894,1.79L32,23.618Z" fill="#b3b3b3"></path
  ></g>
  </svg>
