

    <svg
    xmlns="http://www.w3.org/2000/svg"
    viewBox="0 0 48 48"
    aria-labelledby="iconName"
    role="presentation"
  >
  <g
    ><path
      d="M44,45V18a1.012,1.012,0,0,0-.257-.67C40.6,13.755,39,8.6,39,2.018A1.008,1.008,0,0,0,38,1H32a1,1,0,0,0-1,1.011c-.009,5.61-6.65,9.693-12.486,4.812a5.154,5.154,0,0,1-1.521-4.7A1,1,0,0,0,16,1H10A1.009,1.009,0,0,0,9,2.018C9,8.6,7.4,13.755,4.257,17.33A1.012,1.012,0,0,0,4,18V45a2,2,0,0,0,2,2H42A2,2,0,0,0,44,45Z"
      fill="#e86c60"
    ></path>
    <rect x="4" y="40" width="40" height="2" fill="#efd358"></rect>
    <path
      d="M24,34c-2.945,0-5.167-1.7-5.167-3.967,0-1.9,1.183-3.19,3.18-4.415-2.312-1.631-2.6-3.192-2.6-3.86C19.417,19.37,21.088,18,24,18s4.583,1.37,4.583,3.758c0,.668-.284,2.229-2.6,3.86,2,1.225,3.18,2.512,3.18,4.415C29.167,32.3,26.945,34,24,34Zm0-7.218c-2.623,1.427-3.167,2.312-3.167,3.251C20.833,31.118,22.254,32,24,32s3.167-.882,3.167-1.967C27.167,29.094,26.622,28.209,24,26.782ZM24,20c-2.583,0-2.583,1.188-2.583,1.758,0,.493.558,1.6,2.583,2.754,2.025-1.159,2.583-2.261,2.583-2.754C26.583,21.188,26.583,20,24,20Z"
      fill="#fff"
    ></path
  ></g>
  </svg>
