

    <svg
    xmlns="http://www.w3.org/2000/svg"
    viewBox="0 0 48 48"
    aria-labelledby="iconName"
    role="presentation"
  >
  <g
    ><circle cx="28" cy="6" r="5" fill="#5a7a84"></circle> <circle cx="10.5" cy="42.5" r="4.5" fill="#b3b3b3"></circle>
    <path
      d="M42.91,21.215,31,14.268l-.366-.165-8.245-2.748a4,4,0,0,0-2.834.115L6.316,17.117a2.075,2.075,0,0,0-1.228,2.472,2,2,0,0,0,2.7,1.251l11.238-4.795L13.168,33.613A2.5,2.5,0,0,0,15.508,37a2.5,2.5,0,0,0,2.372-1.71l1.856-5.57,1.841.642L17.16,43.613A2.5,2.5,0,0,0,19.5,47a2.5,2.5,0,0,0,2.372-1.71l8.852-26.553,10.268,5.99a2,2,0,0,0,2.819-.878A2.077,2.077,0,0,0,42.91,21.215Z"
      fill="#5a7a84"
    ></path
  ></g>
  </svg>
