

    <svg
    xmlns="http://www.w3.org/2000/svg"
    viewBox="0 0 48 48"
    aria-labelledby="iconName"
    role="presentation"
  >
   <g
    ><path
      d="M46,41a8.952,8.952,0,0,1-6.3-2.577,1,1,0,0,0-1.4,0q-.184.181-.379.352a8.979,8.979,0,0,1-12.669-.836,1.007,1.007,0,0,0-.1-.1.994.994,0,0,0-1.4.1,8.784,8.784,0,0,1-.841.841,8.971,8.971,0,0,1-12.659-.841,1.007,1.007,0,0,0-.1-.1.994.994,0,0,0-1.4.1A9.008,9.008,0,0,1,2,41H1v5a1,1,0,0,0,1,1H46a1,1,0,0,0,1-1V41Z"
      fill="#a4dae0"
    ></path>
    <circle cx="6.5" cy="12.5" r="3.5" fill="#5a7a84"></circle>
    <path
      d="M28.1,32.934a1,1,0,0,0,1.279.583l14.964-5.5a1,1,0,0,0,.59-1.294l-3.556-9.346C33.3-3.871,17.475,1.673,17.314,1.731a1,1,0,0,0-.588,1.294Z"
      fill="#ed7064"
    ></path>
    <path
      d="M7.542,17.051a3,3,0,0,0-3.471,3.6l2,9A3,3,0,0,0,9,32h6.042l3.4,4.25a2,2,0,0,0,3.124-2.5l-4-5A2,2,0,0,0,16,28H11.851l-1.667-7.5,3.083.485A1.534,1.534,0,0,0,13.5,21a1.5,1.5,0,0,0,1.061-.439l4-4a1.5,1.5,0,0,0-2.122-2.122l-3.46,3.46-5.435-.848Z"
      fill="#5a7a84"
    ></path
  ></g>
  </svg>
