

    <svg
    xmlns="http://www.w3.org/2000/svg"
    viewBox="0 0 48 48"
    aria-labelledby="iconName"
    role="presentation"
  >
  <g
    ><rect x="1" y="17" width="46" height="24" rx="11" ry="11" fill="#b3b3b3"></rect>
    <path
      d="M36.934,16.516h.006L35.7,11.545A6,6,0,0,0,29.877,7H13a2,2,0,0,0-2,2h0a2,2,0,0,0,2,2H29.876a2,2,0,0,1,1.941,1.516h0A2,2,0,0,1,29.878,15H13.107a2.075,2.075,0,0,0-2.08,1.664A2,2,0,0,0,13,19H34.681a2.4,2.4,0,0,0,1.888-.895A1.674,1.674,0,0,0,36.934,16.516Z"
      fill="#ed7064"
    ></path>
    <path
      d="M1.761,24A10.959,10.959,0,0,0,1,28v2a10.959,10.959,0,0,0,.761,4H46.239A10.959,10.959,0,0,0,47,30V28a10.959,10.959,0,0,0-.761-4Z"
      fill="#9e9e9e"
    ></path
  ></g>
  </svg>
