

    <svg
    xmlns="http://www.w3.org/2000/svg"
    viewBox="0 0 48 48"
    aria-labelledby="iconName"
    role="presentation"
  >
 <g
    ><circle cx="26" cy="7" r="5" fill="#5a7a84"></circle>
    <path
      d="M32.913,27.617l-2-10a4.466,4.466,0,0,0-7.228-2.6C23.639,15.046,17.309,20,17.309,20H12a2,2,0,0,0,0,4h6a1.991,1.991,0,0,0,1.235-.428l3.189-2.5,1.663,8.316a4.5,4.5,0,0,0,8.826-1.766Z"
      fill="#5a7a84"
    ></path>
    <path d="M46,28H2a1,1,0,0,0-1,1c0,6.328,5.887,8,9,8H38c3.113,0,9-1.672,9-8A1,1,0,0,0,46,28Z" fill="#47b0ea"></path>
    <path d="M26,46a1,1,0,0,1-.806-.407l-14-19a1,1,0,1,1,1.61-1.186l14,19A1,1,0,0,1,26,46Z" fill="#b7e3fc"></path
  ></g>
  </svg>
