

    <svg
    xmlns="http://www.w3.org/2000/svg"
    viewBox="0 0 48 48"
    aria-labelledby="iconName"
    role="presentation"
  >
  <g>
    <circle cx="22" cy="7" r="5" fill="#5a7a84"></circle>
    <rect x="38" y="42" width="8" height="3" rx="1.5" ry="1.5" fill="#b3b3b3"></rect>
    <path
      d="M31.928,26.225l-4.4-2.64-3.739-7.48a2,2,0,0,0-.8-.841l-7-4A2,2,0,0,0,15,11H7a2,2,0,0,0-1.838,1.212L2.2,19.114a2.075,2.075,0,0,0,.711,2.567,2,2,0,0,0,2.923-.893L8.318,15h3.657l-4.7,9.093A5,5,0,0,0,7,28.028l1.926,5.549L7.091,41.818A2.6,2.6,0,0,0,8.78,44.894a2.5,2.5,0,0,0,3.16-1.852l2-9a2.5,2.5,0,0,0-.036-1.23l-.966-4.133L18,34.164v8.194a2.6,2.6,0,0,0,2.242,2.629A2.5,2.5,0,0,0,23,42.5v-9a2.491,2.491,0,0,0-.329-1.239L19.319,26.4l2.286-5.714L24.211,25.9a2,2,0,0,0,.759.82l5,3a2,2,0,0,0,2.833-.852A2.079,2.079,0,0,0,31.928,26.225Z"
      fill="#5a7a84"
    ></path>
    <path
      d="M43.252,31.841,41.868,30.8a1,1,0,0,0-1.221.013L34.2,35.879,6.148,20.063l-.31.725a1.988,1.988,0,0,1-.821.93L34.826,38.465a2,2,0,0,0,2.212-.168l6.228-4.87A1,1,0,0,0,43.252,31.841Z"
      fill="#c6a279"
    ></path>
  </g>
  </svg>
