

    <svg
    xmlns="http://www.w3.org/2000/svg"
    viewBox="0 0 48 48"
    aria-labelledby="iconName"
    role="presentation"
  >
  <g
    ><circle cx="36" cy="7" r="5" fill="#5a7a84"></circle>
    <path
      d="M16.937,31.073a6.447,6.447,0,0,1-2.143-3.14L4.536,40.953a2.5,2.5,0,0,0,3.928,3.094L18.112,31.8A6.242,6.242,0,0,1,16.937,31.073Z"
      fill="#335262"
    ></path>
    <path
      d="M44.923,20.451a2,2,0,0,0-2.472-1.374l-5.512,1.575s-3.966-6.763-3.97-6.768a4.319,4.319,0,0,0-2.106-1.965c-.055-.028-9.1-3.767-9.1-3.767a2,2,0,0,0-2.3.568l-5,6a2,2,0,0,0,3.074,2.56L21.6,12.411l3.392,1.4-7.5,9.375a4.449,4.449,0,0,0,1.6,6.867c.042.022,6.2,2.778,6.2,2.778l-5.6,5.952a2.5,2.5,0,0,0,3.64,3.428l8-8.5a2.5,2.5,0,0,0-.789-3.991L25.579,27.48l6.167-7.71,2.53,4.244a2,2,0,0,0,2.273.909l7-2A2,2,0,0,0,44.923,20.451Z"
      fill="#5a7a84"
    ></path
  ></g>
  </svg>
