<svg
  xmlns="http://www.w3.org/2000/svg"
  viewBox="0 0 48 48"
  aria-labelledby="iconName"
  role="presentation"
>
  <path
    d="M24 17C22.6155 17 21.2622 16.5895 20.111 15.8203C18.9599 15.0511 18.0627 13.9579 17.5328 12.6788C17.003 11.3997 16.8644 9.99224 17.1345 8.63437C17.4046 7.2765 18.0713 6.02922 19.0503 5.05026C20.0292 4.07129 21.2765 3.4046 22.6344 3.13451C23.9922 2.86441 25.3997 3.00303 26.6788 3.53285C27.9579 4.06266 29.0511 4.95987 29.8203 6.11101C30.5895 7.26215 31 8.61553 31 10C30.9979 11.8559 30.2597 13.6351 28.9474 14.9474C27.6351 16.2597 25.8559 16.9979 24 17Z"
    fill="#EC575C" />
  <path
    d="M24 15.4783C22.2759 15.476 20.6132 14.8384 19.3296 13.6874C18.0459 12.5364 17.2315 10.9528 17.042 9.23914C16.9379 10.1852 17.0278 11.1425 17.3062 12.0526C17.5847 12.9627 18.0458 13.8065 18.6613 14.5323C19.2769 15.2582 20.034 15.8509 20.8865 16.2742C21.7389 16.6975 22.6687 16.9426 23.619 16.9944C24.5693 17.0462 25.5202 16.9037 26.4136 16.5755C27.307 16.2473 28.1241 15.7405 28.8149 15.0858C29.5057 14.4312 30.0558 13.6425 30.4315 12.7681C30.8072 11.8936 31.0006 10.9517 31 10C30.9997 9.74581 30.9857 9.49182 30.958 9.23914C30.7685 10.9528 29.9541 12.5364 28.6704 13.6874C27.3868 14.8384 25.7241 15.476 24 15.4783Z"
    fill="#A33B36" />
  <path
    d="M16 31C14.6155 31 13.2622 30.5895 12.111 29.8203C10.9599 29.0511 10.0627 27.9579 9.53285 26.6788C9.00303 25.3997 8.86441 23.9922 9.13451 22.6344C9.4046 21.2765 10.0713 20.0292 11.0503 19.0503C12.0292 18.0713 13.2765 17.4046 14.6344 17.1345C15.9922 16.8644 17.3997 17.003 18.6788 17.5328C19.9579 18.0627 21.0511 18.9599 21.8203 20.111C22.5895 21.2622 23 22.6155 23 24C22.9979 25.8559 22.2597 27.6351 20.9474 28.9474C19.6351 30.2597 17.8559 30.9979 16 31Z"
    fill="#EC575C" />
  <path
    d="M16 29.4783C14.2759 29.476 12.6132 28.8384 11.3296 27.6874C10.0459 26.5364 9.23153 24.9528 9.042 23.2391C8.9379 24.1852 9.02781 25.1425 9.30624 26.0526C9.58466 26.9627 10.0458 27.8065 10.6613 28.5323C11.2769 29.2582 12.034 29.8509 12.8865 30.2742C13.7389 30.6975 14.6687 30.9426 15.619 30.9944C16.5693 31.0462 17.5202 30.9037 18.4136 30.5755C19.307 30.2473 20.1241 29.7405 20.8149 29.0858C21.5057 28.4312 22.0558 27.6425 22.4315 26.7681C22.8072 25.8936 23.0006 24.9517 23 24C22.9997 23.7458 22.9857 23.4918 22.958 23.2391C22.7685 24.9528 21.9541 26.5364 20.6704 27.6874C19.3868 28.8384 17.7241 29.476 16 29.4783Z"
    fill="#A33B36" />
  <path
    d="M32 31C30.6155 31 29.2622 30.5895 28.111 29.8203C26.9599 29.0511 26.0627 27.9579 25.5328 26.6788C25.003 25.3997 24.8644 23.9922 25.1345 22.6344C25.4046 21.2765 26.0713 20.0292 27.0503 19.0503C28.0292 18.0713 29.2765 17.4046 30.6344 17.1345C31.9922 16.8644 33.3997 17.003 34.6788 17.5328C35.9579 18.0627 37.0511 18.9599 37.8203 20.111C38.5895 21.2622 39 22.6155 39 24C38.9979 25.8559 38.2597 27.6351 36.9474 28.9474C35.6351 30.2597 33.8559 30.9979 32 31Z"
    fill="#EC575C" />
  <path
    d="M32 29.4783C30.2759 29.476 28.6132 28.8384 27.3296 27.6874C26.0459 26.5364 25.2315 24.9528 25.042 23.2391C24.9379 24.1852 25.0278 25.1425 25.3062 26.0526C25.5847 26.9627 26.0458 27.8065 26.6613 28.5323C27.2769 29.2582 28.034 29.8509 28.8865 30.2742C29.7389 30.6975 30.6687 30.9426 31.619 30.9944C32.5693 31.0462 33.5202 30.9037 34.4136 30.5755C35.307 30.2473 36.1241 29.7405 36.8149 29.0858C37.5057 28.4312 38.0558 27.6425 38.4315 26.7681C38.8072 25.8936 39.0006 24.9517 39 24C38.9997 23.7458 38.9857 23.4918 38.958 23.2391C38.7685 24.9528 37.9541 26.5364 36.6704 27.6874C35.3868 28.8384 33.7241 29.476 32 29.4783Z"
    fill="#A33B36" />
  <path
    d="M8 45C6.61553 45 5.26215 44.5895 4.11101 43.8203C2.95987 43.0511 2.06266 41.9579 1.53285 40.6788C1.00303 39.3997 0.86441 37.9922 1.13451 36.6344C1.4046 35.2765 2.07129 34.0292 3.05026 33.0503C4.02922 32.0713 5.2765 31.4046 6.63437 31.1345C7.99224 30.8644 9.3997 31.003 10.6788 31.5328C11.9579 32.0627 13.0511 32.9599 13.8203 34.111C14.5895 35.2622 15 36.6155 15 38C14.9979 39.8559 14.2597 41.6351 12.9474 42.9474C11.6351 44.2597 9.85587 44.9979 8 45Z"
    fill="#EC575C" />
  <path
    d="M8 43.4783C6.27592 43.476 4.61316 42.8384 3.32955 41.6874C2.04594 40.5364 1.23153 38.9528 1.042 37.2391C0.937899 38.1852 1.02781 39.1425 1.30624 40.0526C1.58466 40.9627 2.04576 41.8065 2.66134 42.5323C3.27691 43.2582 4.03405 43.8509 4.88646 44.2742C5.73887 44.6975 6.66865 44.9426 7.61898 44.9944C8.56931 45.0462 9.52023 44.9037 10.4136 44.5755C11.307 44.2473 12.1241 43.7405 12.8149 43.0858C13.5057 42.4312 14.0558 41.6425 14.4315 40.7681C14.8072 39.8936 15.0006 38.9517 15 38C14.9997 37.7458 14.9857 37.4918 14.958 37.2391C14.7685 38.9528 13.9541 40.5364 12.6704 41.6874C11.3868 42.8384 9.72407 43.476 8 43.4783Z"
    fill="#A33B36" />
  <path
    d="M24 45C22.6155 45 21.2622 44.5895 20.111 43.8203C18.9599 43.0511 18.0627 41.9579 17.5328 40.6788C17.003 39.3997 16.8644 37.9922 17.1345 36.6344C17.4046 35.2765 18.0713 34.0292 19.0503 33.0503C20.0292 32.0713 21.2765 31.4046 22.6344 31.1345C23.9922 30.8644 25.3997 31.003 26.6788 31.5328C27.9579 32.0627 29.0511 32.9599 29.8203 34.111C30.5895 35.2622 31 36.6155 31 38C30.9979 39.8559 30.2597 41.6351 28.9474 42.9474C27.6351 44.2597 25.8559 44.9979 24 45Z"
    fill="#EC575C" />
  <path
    d="M24 43.4783C22.2759 43.476 20.6132 42.8384 19.3296 41.6874C18.0459 40.5364 17.2315 38.9528 17.042 37.2391C16.9379 38.1852 17.0278 39.1425 17.3062 40.0526C17.5847 40.9627 18.0458 41.8065 18.6613 42.5323C19.2769 43.2582 20.034 43.8509 20.8865 44.2742C21.7389 44.6975 22.6687 44.9426 23.619 44.9944C24.5693 45.0462 25.5202 44.9037 26.4136 44.5755C27.307 44.2473 28.1241 43.7405 28.8149 43.0858C29.5057 42.4312 30.0558 41.6425 30.4315 40.7681C30.8072 39.8936 31.0006 38.9517 31 38C30.9997 37.7458 30.9857 37.4918 30.958 37.2391C30.7685 38.9528 29.9541 40.5364 28.6704 41.6874C27.3868 42.8384 25.7241 43.476 24 43.4783Z"
    fill="#A33B36" />
  <path
    d="M40 45C38.6155 45 37.2622 44.5895 36.111 43.8203C34.9599 43.0511 34.0627 41.9579 33.5328 40.6788C33.003 39.3997 32.8644 37.9922 33.1345 36.6344C33.4046 35.2765 34.0713 34.0292 35.0503 33.0503C36.0292 32.0713 37.2765 31.4046 38.6344 31.1345C39.9922 30.8644 41.3997 31.003 42.6788 31.5328C43.9579 32.0627 45.0511 32.9599 45.8203 34.111C46.5895 35.2622 47 36.6155 47 38C46.9979 39.8559 46.2597 41.6351 44.9474 42.9474C43.6351 44.2597 41.8559 44.9979 40 45Z"
    fill="#EC575C" />
  <path
    d="M40 43.4783C38.2759 43.476 36.6132 42.8384 35.3296 41.6874C34.0459 40.5364 33.2315 38.9528 33.042 37.2391C32.9379 38.1852 33.0278 39.1425 33.3062 40.0526C33.5847 40.9627 34.0458 41.8065 34.6613 42.5323C35.2769 43.2582 36.034 43.8509 36.8865 44.2742C37.7389 44.6975 38.6687 44.9426 39.619 44.9944C40.5693 45.0462 41.5202 44.9037 42.4136 44.5755C43.307 44.2473 44.1241 43.7405 44.8149 43.0858C45.5057 42.4312 46.0558 41.6425 46.4315 40.7681C46.8072 39.8936 47.0006 38.9517 47 38C46.9997 37.7458 46.9857 37.4918 46.958 37.2391C46.7685 38.9528 45.9541 40.5364 44.6704 41.6874C43.3868 42.8384 41.7241 43.476 40 43.4783Z"
    fill="#A33B36" />

</svg>