

    <svg
    xmlns="http://www.w3.org/2000/svg"
    viewBox="0 0 48 48"
    aria-labelledby="iconName"
    role="presentation"
  >
 <g
    ><circle cx="16" cy="7" r="5" fill="#5a7a84"></circle>
    <path
      d="M28,45a1,1,0,0,1-.947-.684l-4-12a1,1,0,1,1,1.9-.632l3.295,9.883L31.4,39.2a1,1,0,0,1,1.548.484l1,3a1,1,0,0,1-.752,1.3l-5,1A.948.948,0,0,1,28,45Z"
      fill="#444"
    ></path>
    <path
      d="M44,39a3,3,0,1,0-3.965,2.827A.915.915,0,0,0,40,42v3a1,1,0,0,0,2,0V42a.915.915,0,0,0-.035-.173A2.989,2.989,0,0,0,44,39Z"
      fill="#b3b3b3"
    ></path>
    <path
      d="M23.676,25.909,17.328,16.14a4.5,4.5,0,0,0-7.94.533l-4,9A4.48,4.48,0,0,0,5.927,30.2C5.976,30.274,11,36.4,11,36.4v7.1a2.5,2.5,0,0,0,5,0v-8a2.506,2.506,0,0,0-.575-1.6l-2.711-3.269a4.461,4.461,0,0,0,.9-1.308l3.05-6.863,3.662,5.627a2,2,0,1,0,3.352-2.182Z"
      fill="#5a7a84"
    ></path
  ></g>
  </svg>
