

    <svg
    xmlns="http://www.w3.org/2000/svg"
    viewBox="0 0 48 48"
    aria-labelledby="iconName"
    role="presentation"
  >
  <g>
    <path
      d="M4.23735 38.6531C4.06877 38.5688 3.81568 38.3532 3.67513 38.1749C3.43122 37.847 3.42181 37.8093 3.39379 36.3094L3.36577 34.7812H4.76259C6.09373 34.7812 6.15941 34.772 6.35647 34.5655C6.65618 34.247 6.60933 34.1813 6.30939 34.4812C6.08431 34.7063 6.04688 34.7157 6.01886 34.5655C6.00003 34.4718 6.0563 34.3124 6.15 34.2093C6.26253 34.0782 6.32822 33.8251 6.35624 33.4126L6.39367 32.8125H9.17813C10.8 32.8125 12.0937 32.8499 12.3 32.9062C12.497 32.9625 12.7781 33.1124 12.9375 33.2438C13.228 33.4969 13.322 33.8437 13.0875 33.8437C12.975 33.8437 12.975 33.9 13.0875 34.1999C13.2375 34.6126 13.2657 37.1906 13.1249 37.6782C13.0218 38.0438 12.647 38.4843 12.2625 38.6813C12.0563 38.7845 11.3062 38.8125 8.27807 38.8125C5.01568 38.8125 4.50927 38.7845 4.23758 38.6531H4.23735ZM32.5969 37.9313C32.1469 37.7625 31.9033 37.5468 31.6782 37.1063C31.5282 36.8064 31.5 36.5439 31.5 35.1751C31.5 33.7031 31.5188 33.5626 31.7156 33.1781C32.0718 32.5031 32.4563 32.3437 33.7312 32.3437C34.7157 32.3437 34.7812 32.3343 34.7812 32.1563C34.7812 31.9781 34.8469 31.9687 36.4219 31.9687C37.997 31.9687 38.0624 31.9781 38.0624 32.1563C38.0624 32.3343 38.1281 32.3437 39.0938 32.3437C40.2187 32.3437 40.4532 32.4094 40.8937 32.8782C41.2876 33.3001 41.3439 33.5626 41.3439 35.1845C41.3439 36.9749 41.2408 37.322 40.5844 37.753L40.1813 38.0156L36.5719 38.0344C33.6751 38.0532 32.8782 38.0344 32.5969 37.9313V37.9313ZM17.1562 24V21.2812H19.697C21.375 21.2812 22.3687 21.3187 22.6126 21.3938C23.0814 21.5343 23.7564 22.125 24.028 22.6312C24.2063 22.9594 24.2345 23.1656 24.2345 24C24.2345 25.1437 24.0937 25.5 23.4376 26.1001C22.7624 26.7094 22.7063 26.7188 19.7813 26.7188H17.156V24H17.1562ZM34.7812 15.8437C34.7812 15.6657 34.7157 15.6563 33.7312 15.6563C32.7937 15.6563 32.6531 15.6374 32.2875 15.422C31.6125 15.0187 31.5 14.6625 31.5 12.8061C31.5 11.0905 31.5845 10.7437 32.1187 10.3218C32.5874 9.95622 32.9531 9.9282 36.647 9.95622L40.1907 9.98447L40.5844 10.247C41.2408 10.6781 41.3439 11.0251 41.3439 12.8155C41.3439 14.4374 41.2876 14.7 40.8937 15.1218C40.4532 15.5906 40.2187 15.6563 39.0938 15.6563C38.1281 15.6563 38.0624 15.6655 38.0624 15.8437C38.0624 16.0219 37.997 16.0313 36.4219 16.0313C34.8469 16.0313 34.7812 16.0219 34.7812 15.8437ZM6.37507 14.7188C6.37507 14.1469 6.16883 13.7156 5.85006 13.5939C5.71869 13.5376 5.27819 13.5 4.87513 13.5C4.19073 13.5 3.81568 13.3782 4.19073 13.2843C4.28443 13.2563 4.13446 13.2374 3.86253 13.228L3.36554 13.2188L3.39379 11.6906C3.42181 10.1907 3.43122 10.153 3.67513 9.82508C4.16248 9.18753 4.15306 9.18753 8.29691 9.18753C11.3062 9.18753 12.0563 9.21555 12.2625 9.31867C12.647 9.51572 13.0218 9.95622 13.1249 10.3218C13.2657 10.8094 13.2375 13.3874 13.0875 13.8093C12.975 14.1095 12.975 14.1561 13.0969 14.1561C13.3406 14.1561 13.1812 14.55 12.8156 14.8499L12.4499 15.1407L9.41262 15.1687L6.37507 15.1969V14.7188V14.7188Z"
      fill="#2C2F38"
    />
    <path
      d="M44.1844 35.3062L43.9219 35.0813L43.8938 30.5719C43.875 27.7314 43.8376 26.0624 43.7813 26.0624C43.725 26.0624 43.6876 26.0064 43.6876 25.9407C43.6876 25.8656 44.2406 25.7439 45.4689 25.5562C47.0814 25.3125 47.5876 25.2843 47.2688 25.4813C47.1937 25.5376 47.1562 26.7468 47.1376 30.3188L47.1094 35.0813L46.8469 35.3062C46.6032 35.5124 46.5095 35.5313 45.5157 35.5313C44.522 35.5313 44.4281 35.5124 44.1844 35.3062ZM12.6844 33.5626C12.2814 33.1969 11.8501 33.0938 10.6689 33.0938H9.65607V28.9688H9.95624C10.1905 28.9688 19.5 32.4937 21.4032 33.3001C21.8814 33.5063 21.9657 33.6937 21.6375 33.7874C21.5157 33.8157 19.5282 33.8437 17.2031 33.8437L12.9844 33.8345L12.6844 33.5626V33.5626ZM13.5188 25.7344C11.5501 25.1532 9.87172 24.6281 9.79685 24.5625C9.61886 24.4125 9.60945 23.5969 9.78767 23.447C9.9939 23.2782 16.95 21.2812 17.3531 21.2812C17.6156 21.2812 17.7187 21.3187 17.7187 21.4218C17.7178 21.4588 17.7027 21.4941 17.6766 21.5203C17.6504 21.5465 17.6152 21.5616 17.5781 21.5626C17.4564 21.5626 17.4376 21.9002 17.4376 24C17.4376 26.1001 17.4562 26.4374 17.5781 26.4374C17.6532 26.4374 17.7187 26.522 17.7187 26.6251C17.7187 26.775 17.6624 26.8125 17.4187 26.8031C17.2499 26.7936 15.4969 26.3157 13.5188 25.7344V25.7344ZM45.1219 22.4155C44.0813 22.2562 43.5937 22.1344 43.5937 22.0596C43.5937 21.9936 43.6594 21.9374 43.7345 21.9374C43.847 21.9374 43.875 21.3281 43.8938 17.4281L43.9219 12.9187L44.1844 12.6936C44.4281 12.4876 44.522 12.4688 45.5157 12.4688C46.5095 12.4688 46.6032 12.4876 46.8469 12.6938L47.1094 12.9189L47.1376 17.7095C47.1562 20.7374 47.1937 22.5001 47.2499 22.5001C47.2748 22.5001 47.2986 22.51 47.3162 22.5276C47.3338 22.5451 47.3438 22.5689 47.3439 22.5938C47.3439 22.7343 46.8189 22.6875 45.1219 22.4155V22.4155ZM9.6563 16.9688V14.9064H10.6783C11.9812 14.9064 12.1969 14.8593 12.647 14.4751L13.0126 14.1563H17.2219C19.5282 14.1563 21.5157 14.1843 21.6375 14.2126C21.75 14.25 21.8437 14.3251 21.8437 14.3812C21.8437 14.4469 21.75 14.55 21.6375 14.6062C20.897 14.9907 10.247 19.0312 9.97507 19.0312H9.6563V16.9688V16.9688Z"
      fill="#C94F49"
    />
    <path
      d="M21.6562 33.7405C21.5342 33.6887 21.4089 33.6449 21.2812 33.6094C21.1781 33.5906 11.1468 29.7186 10.0593 29.2781C10.003 29.2593 9.93758 29.3156 9.91875 29.4187C9.8905 29.5875 9.75936 29.5593 8.21233 28.9594C7.28449 28.6032 6.47813 28.2656 6.40303 28.2093C6.30933 28.125 6.28131 27.2906 6.28131 23.9531V19.7999L7.6593 19.2563C8.42799 18.9655 9.24376 18.647 9.49685 18.553C9.92816 18.3844 9.93758 18.3844 9.93758 18.5624C9.93758 18.6658 9.95618 18.7501 9.97501 18.7501C9.99362 18.7501 12.4124 17.8218 15.3469 16.678C18.2719 15.5437 20.9718 14.5031 21.328 14.3814C22.7531 13.8938 23.972 14.2406 24.5999 15.3092C24.7687 15.6 24.8812 16.003 24.9843 16.7157C25.0969 17.5407 25.4813 18.9843 25.6124 19.0686C25.6313 19.078 27.6468 19.397 30.0937 19.7813C32.5405 20.1563 34.6031 20.4843 34.6688 20.5125C34.7343 20.5314 34.7811 20.4751 34.7811 20.3531C34.7811 20.2406 34.8188 20.1563 34.8657 20.1563C34.9125 20.1563 35.6249 20.2594 36.4407 20.3906C37.2562 20.5219 37.9501 20.6248 37.9969 20.6248C38.0343 20.6248 38.0624 20.7093 38.0624 20.8125C38.0624 20.925 38.1375 21.0093 38.278 21.0467C38.4657 21.0844 41.728 21.5812 45.6 22.1719C47.2124 22.4061 47.4281 22.5 47.728 23.0625C47.9719 23.5032 47.9719 24.4967 47.728 24.9375C47.4375 25.4999 47.1376 25.6313 45.6 25.8561C44.8313 25.9781 44.0155 26.0812 43.7812 26.1095C43.3594 26.1469 38.6719 26.8687 38.278 26.953C38.1375 26.9907 38.0624 27.075 38.0624 27.1875C38.0624 27.2906 38.0438 27.3749 38.0249 27.3749C38.0063 27.3749 37.3125 27.478 36.4967 27.6094C34.7063 27.8905 34.7811 27.8905 34.7811 27.6468C34.7811 27.5249 34.7343 27.4688 34.6688 27.4874C34.6031 27.5157 32.5405 27.8437 30.0937 28.2187C27.6468 28.6032 25.6313 28.9219 25.6124 28.9311C25.4813 29.0156 25.0969 30.4593 24.9843 31.2843C24.7781 32.6999 24.3936 33.2906 23.4093 33.7031C23.025 33.8625 22.0124 33.8813 21.6562 33.7405V33.7405ZM22.5749 26.2688C22.9874 26.0344 23.5406 25.4719 23.7469 25.0874C24.0374 24.5438 24.028 23.4561 23.7469 22.9125C23.475 22.4063 22.8 21.8156 22.3312 21.6749C22.0875 21.6 21.1406 21.5623 19.6125 21.5623H17.2593L13.7248 22.5935C11.7843 23.1656 10.1344 23.6718 10.0687 23.7281C9.89991 23.8686 9.89991 24.1405 10.0779 24.2813C10.153 24.3468 11.8218 24.8624 13.7907 25.4437L17.3624 26.4843L19.8658 26.4374C21.6939 26.4 22.4155 26.3531 22.5749 26.2688V26.2688Z"
      fill="#E86C60"
    />
    <path
      d="M6.37506 30.5624C6.37506 29.0156 6.40308 27.75 6.44075 27.75C6.46876 27.75 6.57188 27.8156 6.65617 27.8905C6.73127 27.9656 7.49996 28.2938 8.34375 28.6218L9.89054 29.2125L9.91879 31.1531L9.9374 33.0938H8.2969C6.90008 33.0938 6.65617 33.1124 6.65617 33.2344C6.6553 33.2714 6.64021 33.3066 6.61403 33.3328C6.58786 33.359 6.55262 33.374 6.51562 33.3749C6.39389 33.3749 6.37506 33.0001 6.37506 30.5624V30.5624ZM34.7812 29.9063C34.7812 28.6218 34.7906 27.5626 34.8094 27.5626C34.8188 27.5531 35.5593 27.4406 36.4499 27.2906L38.0624 27.0375V32.25H34.7812V29.9063ZM36.4219 20.7188C35.8849 20.6255 35.3474 20.5348 34.8094 20.4468C34.7906 20.4377 34.7812 19.3874 34.7812 18.0937V15.75H38.0624V18.375C38.0624 19.8187 38.0532 20.9907 38.0438 20.9907C38.025 20.9813 37.3031 20.8593 36.4219 20.7188V20.7188ZM6.37506 17.4375C6.37506 14.9999 6.39389 14.6251 6.51562 14.6251C6.59072 14.6251 6.65617 14.6905 6.65617 14.7656C6.65617 14.8873 6.90008 14.9062 8.2969 14.9062H9.93763L9.91879 16.8468L9.89054 18.7875L8.25005 19.4251C7.34999 19.7719 6.60013 20.1 6.5813 20.1563C6.56247 20.2032 6.5062 20.25 6.45958 20.25C6.4125 20.25 6.37506 19.078 6.37506 17.4375Z"
      fill="#7F8C8D"
    />
    <path
      d="M0.271947 34.4438L0.046875 34.1999V13.7999L0.262531 13.5656L0.478186 13.3405L3.19696 13.2843C4.75317 13.2468 6.00944 13.2657 6.14058 13.3125C6.58131 13.4813 6.60932 13.6313 6.65618 16.95C6.68443 18.6564 6.67501 20.0626 6.63757 20.0626C6.54387 20.0626 6.54387 27.8157 6.63757 27.8719C6.67501 27.8999 6.69384 29.3156 6.67501 31.0126L6.64699 34.1062L6.38448 34.3969L6.11256 34.6875H0.496789L0.271717 34.4438H0.271947ZM3.64687 25.0689C3.83428 24.8344 3.8437 24.7032 3.8437 22.7437C3.8437 20.775 3.83451 20.6531 3.65629 20.4563C3.39378 20.1749 3.13128 20.1938 2.93445 20.5031C2.78448 20.7282 2.76565 20.9999 2.76565 22.7906C2.76565 24.8155 2.76565 24.8344 2.99072 25.0689C3.28125 25.3782 3.4032 25.3782 3.64687 25.0689V25.0689ZM3.72198 17.5312C3.78743 17.4561 3.8437 17.1936 3.8437 16.9594C3.8437 16.6218 3.78743 16.4718 3.60944 16.275C3.36576 16.0125 3.16871 16.0313 2.93422 16.3312C2.65311 16.6875 2.75623 17.5032 3.11244 17.7563C3.32833 17.9063 3.45924 17.8594 3.72198 17.5312V17.5312Z"
      fill="#C94F49"
    />
    <path
      d="M3.04696 25.6031C2.94361 25.5562 2.77504 25.4251 2.67192 25.3125C2.4937 25.1157 2.48428 24.9749 2.48428 22.7908C2.48428 20.7376 2.50311 20.4469 2.65309 20.2218C2.93442 19.7907 3.55314 19.7719 3.9376 20.1749C4.11559 20.372 4.12501 20.4937 4.12501 22.7437C4.12501 25.0689 4.12501 25.1157 3.91877 25.35C3.67509 25.6125 3.32807 25.7156 3.04696 25.6031V25.6031ZM2.76562 17.9626C2.33431 17.5313 2.34373 16.2844 2.78445 15.9374C3.13125 15.6657 3.60941 15.6939 3.89052 15.9936C4.09676 16.2187 4.12478 16.3313 4.12478 16.9688C4.12478 17.625 4.10641 17.7187 3.88133 17.9437C3.55291 18.2625 3.07498 18.2719 2.76562 17.9626V17.9626Z"
      fill="#E6E7E8"
    />
  </g>
  </svg>
